<svg version="1.1" xmlns="http://www.w3.org/2000/svg" xmlns:xlink="http://www.w3.org/1999/xlink" width="2076" height="795" viewBox="0 0 2076 795"><defs/><g transform="matrix(1,0,0,1,0,0)"><g><g><g><path fill="none" stroke="#d3d3d3" paint-order="fill stroke markers" d=" M 0 0 L 1200 0" stroke-miterlimit="10" stroke-opacity="0.8" stroke-dasharray="5"/></g><g><path fill="none" stroke="#d3d3d3" paint-order="fill stroke markers" d=" M 0 0 L 0 800" stroke-miterlimit="10" stroke-opacity="0.8" stroke-dasharray="5"/></g></g><g id="_CA6D718A-FCA1-43E3-9E43-3691AC750698" bpmn2nodeid="_CA6D718A-FCA1-43E3-9E43-3691AC750698" transform="matrix(1,0,0,1,1970.2568359375,520.5223999023438)"><g><path fill="none" stroke="none"/></g><g transform="matrix(0.125,0,0,0.125,0,0)"><g transform="matrix(1,0,0,1,0,0)"><path fill="#fce7e7" stroke="none" id="_CA6D718A-FCA1-43E3-9E43-3691AC750698?shapeType=BACKGROUND" paint-order="stroke fill markers" d=" M 0 0 M 444 224 C 444 263.9 434.2 300.8 414.4 334.5 C 394.7 368.2 368 394.9 334.4 414.5 C 300.79999999999995 434.1 263.9 444 224 444 C 184.10000000000002 444 147.2 434.2 113.5 414.4 C 79.8 394.7 53.1 368 33.5 334.4 C 13.899999999999999 300.79999999999995 4 263.9 4 224 C 4 184.10000000000002 13.8 147.2 33.6 113.5 C 53.400000000000006 79.80000000000001 80.1 53.1 113.6 33.5 C 147.1 13.899999999999999 184.1 4 224 4 C 263.9 4 300.8 13.8 334.5 33.6 C 368.2 53.400000000000006 394.9 80.1 414.5 113.6 C 434.1 147.1 444 184.1 444 224 Z"/></g><g><g transform="matrix(1,0,0,1,0,0)"><g transform="matrix(1,0,0,1,0,0)"><path fill="#a30000" stroke="none" id="_CA6D718A-FCA1-43E3-9E43-3691AC750698?shapeType=BORDER&amp;renderType=FILL" paint-order="stroke fill markers" d=" M 0 0 M 224 0 C 100.3 0 0 100.3 0 224 C 0 347.7 100.3 448 224 448 C 347.7 448 448 347.7 448 224 C 448 100.30000000000001 347.7 0 224 0 Z M 0 0 M 224 400 C 126.8 400 48 321.2 48 224 C 48 126.80000000000001 126.8 48 224 48 C 321.2 48 400 126.8 400 224 C 400 321.2 321.2 400 224 400 Z"/></g></g></g></g><g transform="matrix(1,0,0,1,28,61)"/></g><g id="_8C98D572-E62F-4F9E-9118-1767557B928A" bpmn2nodeid="_8C98D572-E62F-4F9E-9118-1767557B928A" transform="matrix(1,0,0,1,587.5,499.2710876464844)"><g><path fill="none" stroke="none"/></g><g transform="matrix(1,0,0,1,0,0)"><path fill="#ffffff" stroke="none" id="_8C98D572-E62F-4F9E-9118-1767557B928A?shapeType=BACKGROUND" paint-order="stroke fill markers" d=" M 2 0 L 151 0 L 151 0 A 2 2 0 0 1 153 2 L 153 99.00003051757812 L 153 99.00003051757812 A 2 2 0 0 1 151 101.00003051757812 L 2 101.00003051757812 L 2 101.00003051757812 A 2 2 0 0 1 0 99.00003051757812 L 0 2 L 0 2.0000000000000004 A 2 2 0 0 1 1.9999999999999996 0 Z"/></g><g transform="matrix(1,0,0,1,0,0)"><path fill="none" stroke="rgb(57,63,68)" id="_8C98D572-E62F-4F9E-9118-1767557B928A?shapeType=BORDER&amp;renderType=STROKE" paint-order="fill stroke markers" d=" M 2 0 L 151 0 L 151 0 A 2 2 0 0 1 153 2 L 153 99.00003051757812 L 153 99.00003051757812 A 2 2 0 0 1 151 101.00003051757812 L 2 101.00003051757812 L 2 101.00003051757812 A 2 2 0 0 1 0 99.00003051757812 L 0 2 L 0 2.0000000000000004 A 2 2 0 0 1 1.9999999999999996 0 Z" stroke-miterlimit="10" stroke-width="1.5" stroke-dasharray=""/></g><g transform="matrix(1,0,0,1,1,10.000030517578125)"><g transform="matrix(1,0,0,1,0,0)"><g transform="matrix(1,0,0,1,63,66)"><path fill="none" stroke="#393f44" id="_8C98D572-E62F-4F9E-9118-1767557B928Aundefined" paint-order="fill stroke markers" d=" M 0 0 L 25 0 L 25 25 L 0 25 L 0 0 Z Z" stroke-miterlimit="10" stroke-width="1.5" stroke-dasharray=""/></g><g transform="matrix(0.04,0,0,0.04,68.64,69.6)"><path fill="#000000" stroke="#000000" id="_8C98D572-E62F-4F9E-9118-1767557B928Aundefined" paint-order="fill stroke markers" d=" M 0 0 M 352 184 L 352 232 C 352 238.7 349.7 244.3 345 249 C 340.3 253.7 334.7 256 328 256 L 224 256 L 224 360 C 224 366.7 221.7 372.3 217 377 C 212.3 381.7 206.7 384 200 384 L 152 384 C 145.3 384 139.7 381.7 135 377 C 130.3 372.3 128 366.7 128 360 L 128 256 L 24 256 C 17.3 256 11.7 253.7 7 249 C 2.3000000000000007 244.3 0 238.7 0 232 L 0 184 C 0 177.3 2.3 171.7 7 167 C 11.7 162.3 17.3 160 24 160 L 128 160 L 128 56 C 128 49.3 130.3 43.7 135 39 C 139.7 34.3 145.3 32 152 32 L 200 32 C 206.7 32 212.3 34.3 217 39 C 221.7 43.7 224 49.3 224 56 L 224 160 L 328 160 C 334.7 160 340.3 162.3 345 167 C 349.7 171.7 352 177.3 352 184 Z" stroke-miterlimit="10" stroke-dasharray=""/></g></g></g><g transform="matrix(1,0,0,1,12.82,10.000030517578125)"><g transform="matrix(1,0,0,1,0,0)"><g transform="matrix(1,0,0,1,63,66)"><path fill="none" stroke="none"/></g><g transform="matrix(0.04,0,0,0.04,68.64,69.6)"><path fill="none" stroke="none"/></g><g transform="matrix(0.04,0,0,0.04,40.32,71.04)"><path fill="none" stroke="none"/></g><g transform="matrix(0.04,0,0,0.04,39.36,72)"><path fill="none" stroke="none"/></g></g></g><g transform="matrix(1,0,0,1,37.5625,43.00001525878906)"><text fill="#000000" stroke="none" font-family="Open Sans" font-size="12pt" font-style="normal" font-weight="normal" text-decoration="normal" x="38.9375" y="12" text-anchor="middle" dominant-baseline="alphabetic">Deal Tasks</text></g></g><g id="_9FC990B2-EFB7-4C48-9CF9-B8DE71A2DDB4" bpmn2nodeid="_9FC990B2-EFB7-4C48-9CF9-B8DE71A2DDB4" transform="matrix(1,0,0,1,849.7431030273438,354.52239990234375)"><g><path fill="none" stroke="none"/></g><g transform="matrix(1,0,0,1,0,0)"><path fill="#ffffff" stroke="none" id="_9FC990B2-EFB7-4C48-9CF9-B8DE71A2DDB4?shapeType=BACKGROUND" paint-order="stroke fill markers" d=" M 5 0 L 939.5137329101562 0 L 939.5137329101562 0 A 5 5 0 0 1 944.5137329101562 5 L 944.5137329101562 385.4619140625 L 944.5137329101562 385.4619140625 A 5 5 0 0 1 939.5137329101562 390.4619140625 L 5 390.4619140625 L 5 390.4619140625 A 5 5 0 0 1 0 385.4619140625 L 0 5 L 0 5.000000000000001 A 5 5 0 0 1 4.999999999999999 0 Z"/></g><g transform="matrix(1,0,0,1,0,0)"><path fill="none" stroke="rgb(57,63,68)" id="_9FC990B2-EFB7-4C48-9CF9-B8DE71A2DDB4?shapeType=BORDER&amp;renderType=STROKE" paint-order="fill stroke markers" d=" M 5 0 L 939.5137329101562 0 L 939.5137329101562 0 A 5 5 0 0 1 944.5137329101562 5 L 944.5137329101562 385.4619140625 L 944.5137329101562 385.4619140625 A 5 5 0 0 1 939.5137329101562 390.4619140625 L 5 390.4619140625 L 5 390.4619140625 A 5 5 0 0 1 0 385.4619140625 L 0 5 L 0 5.000000000000001 A 5 5 0 0 1 4.999999999999999 0 Z" stroke-miterlimit="10" stroke-width="1.5" stroke-dasharray=""/></g><g transform="matrix(1,0,0,1,175.25686645507812,157.4619140625)"><g transform="matrix(0.05,0,0,0.05,285,209)"><g transform="matrix(1,0,0,1,0,0)"><path fill="#000000" stroke="#000000" id="_9FC990B2-EFB7-4C48-9CF9-B8DE71A2DDB4undefined" paint-order="fill stroke markers" d=" M 0 0 M 92 44 L 92 468 C 92 474.6 86.6 480 80 480 L 48 480 C 41.4 480 36 474.6 36 468 L 36 44 C 36 37.4 41.4 32 48 32 L 80 32 C 86.6 32 92 37.4 92 44 Z M 0 0 M 252 44 L 252 468 C 252 474.6 246.6 480 240 480 L 208 480 C 201.4 480 196 474.6 196 468 L 196 44 C 196 37.4 201.4 32 208 32 L 240 32 C 246.6 32 252 37.4 252 44 Z M 0 0 M 412 44 L 412 468 C 412 474.6 406.6 480 400 480 L 368 480 C 361.4 480 356 474.6 356 468 L 356 44 C 356 37.4 361.4 32 368 32 L 400 32 C 406.6 32 412 37.4 412 44 Z" stroke-miterlimit="10" stroke-dasharray=""/></g><g transform="matrix(1,0,0,1,0,0)"><path fill="none" stroke="none"/></g></g></g><g transform="matrix(1,0,0,1,426.1474914550781,0)"><text fill="#000000" stroke="none" font-family="Open Sans" font-size="12pt" font-style="normal" font-weight="normal" text-decoration="normal" x="46.109375" y="12" text-anchor="middle" dominant-baseline="alphabetic">Facility Loop</text></g><g id="_517AE84A-05C3-4913-9D7D-FDFC4BB3B8A3" bpmn2nodeid="_517AE84A-05C3-4913-9D7D-FDFC4BB3B8A3" transform="matrix(1,0,0,1,799.0000610351562,157.7633056640625)"><g><path fill="none" stroke="none"/></g><g transform="matrix(0.125,0,0,0.125,0,0)"><g transform="matrix(1,0,0,1,0,0)"><path fill="#fce7e7" stroke="none" id="_517AE84A-05C3-4913-9D7D-FDFC4BB3B8A3?shapeType=BACKGROUND" paint-order="stroke fill markers" d=" M 0 0 M 444 224 C 444 263.9 434.2 300.8 414.4 334.5 C 394.7 368.2 368 394.9 334.4 414.5 C 300.79999999999995 434.1 263.9 444 224 444 C 184.10000000000002 444 147.2 434.2 113.5 414.4 C 79.8 394.7 53.1 368 33.5 334.4 C 13.899999999999999 300.79999999999995 4 263.9 4 224 C 4 184.10000000000002 13.8 147.2 33.6 113.5 C 53.400000000000006 79.80000000000001 80.1 53.1 113.6 33.5 C 147.1 13.899999999999999 184.1 4 224 4 C 263.9 4 300.8 13.8 334.5 33.6 C 368.2 53.400000000000006 394.9 80.1 414.5 113.6 C 434.1 147.1 444 184.1 444 224 Z"/></g><g><g transform="matrix(1,0,0,1,0,0)"><g transform="matrix(1,0,0,1,0,0)"><path fill="#a30000" stroke="none" id="_517AE84A-05C3-4913-9D7D-FDFC4BB3B8A3?shapeType=BORDER&amp;renderType=FILL" paint-order="stroke fill markers" d=" M 0 0 M 224 0 C 100.3 0 0 100.3 0 224 C 0 347.7 100.3 448 224 448 C 347.7 448 448 347.7 448 224 C 448 100.30000000000001 347.7 0 224 0 Z M 0 0 M 224 400 C 126.8 400 48 321.2 48 224 C 48 126.80000000000001 126.8 48 224 48 C 321.2 48 400 126.8 400 224 C 400 321.2 321.2 400 224 400 Z"/></g></g></g></g><g transform="matrix(1,0,0,1,28,61)"/></g><g id="_95352C0D-564E-441B-A4D7-40722168D2BD" bpmn2nodeid="_95352C0D-564E-441B-A4D7-40722168D2BD" transform="matrix(1,0,0,1,234.87139892578125,84.7633056640625)"><g><path fill="none" stroke="none"/></g><g transform="matrix(1,0,0,1,0,0)"><path fill="#ffffff" stroke="none" id="_95352C0D-564E-441B-A4D7-40722168D2BD?shapeType=BACKGROUND" paint-order="stroke fill markers" d=" M 5 0 L 453.128662109375 0 L 453.128662109375 0 A 5 5 0 0 1 458.128662109375 5 L 458.128662109375 213.8857421875 L 458.128662109375 213.8857421875 A 5 5 0 0 1 453.128662109375 218.8857421875 L 5 218.8857421875 L 5 218.8857421875 A 5 5 0 0 1 0 213.8857421875 L 0 5 L 0 5.000000000000001 A 5 5 0 0 1 4.999999999999999 0 Z"/></g><g transform="matrix(1,0,0,1,0,0)"><path fill="none" stroke="rgb(57,63,68)" id="_95352C0D-564E-441B-A4D7-40722168D2BD?shapeType=BORDER&amp;renderType=STROKE" paint-order="fill stroke markers" d=" M 5 0 L 453.128662109375 0 L 453.128662109375 0 A 5 5 0 0 1 458.128662109375 5 L 458.128662109375 213.8857421875 L 458.128662109375 213.8857421875 A 5 5 0 0 1 453.128662109375 218.8857421875 L 5 218.8857421875 L 5 218.8857421875 A 5 5 0 0 1 0 213.8857421875 L 0 5 L 0 5.000000000000001 A 5 5 0 0 1 4.999999999999999 0 Z" stroke-miterlimit="10" stroke-width="1.5" stroke-dasharray=""/></g><g transform="matrix(1,0,0,1,-67.9356689453125,-14.1142578125)"><g transform="matrix(0.05,0,0,0.05,285,209)"><g transform="matrix(1,0,0,1,0,0)"><path fill="#000000" stroke="#000000" id="_95352C0D-564E-441B-A4D7-40722168D2BDundefined" paint-order="fill stroke markers" d=" M 0 0 M 92 44 L 92 468 C 92 474.6 86.6 480 80 480 L 48 480 C 41.4 480 36 474.6 36 468 L 36 44 C 36 37.4 41.4 32 48 32 L 80 32 C 86.6 32 92 37.4 92 44 Z M 0 0 M 252 44 L 252 468 C 252 474.6 246.6 480 240 480 L 208 480 C 201.4 480 196 474.6 196 468 L 196 44 C 196 37.4 201.4 32 208 32 L 240 32 C 246.6 32 252 37.4 252 44 Z M 0 0 M 412 44 L 412 468 C 412 474.6 406.6 480 400 480 L 368 480 C 361.4 480 356 474.6 356 468 L 356 44 C 356 37.4 361.4 32 368 32 L 400 32 C 406.6 32 412 37.4 412 44 Z" stroke-miterlimit="10" stroke-dasharray=""/></g><g transform="matrix(1,0,0,1,0,0)"><path fill="none" stroke="none"/></g></g></g><g transform="matrix(1,0,0,1,170.5291748046875,0)"><text fill="#000000" stroke="none" font-family="Open Sans" font-size="12pt" font-style="normal" font-weight="normal" text-decoration="normal" x="58.53515625" y="12" text-anchor="middle" dominant-baseline="alphabetic">Facility Task List</text></g><g id="_54C74E13-2CC2-43EB-BC70-507C345F608C" bpmn2nodeid="_54C74E13-2CC2-43EB-BC70-507C345F608C" transform="matrix(1,0,0,1,34,72)"><g><path fill="none" stroke="none"/></g><g transform="matrix(0.125,0,0,0.125,0,0)"><g transform="matrix(1,0,0,1,0,0)"><path fill="#e8fae6" stroke="none" id="_54C74E13-2CC2-43EB-BC70-507C345F608C?shapeType=BACKGROUND" paint-order="stroke fill markers" d=" M 0 0 M 444 224 C 444 263.9 434.2 300.8 414.4 334.5 C 394.7 368.2 368 394.9 334.4 414.5 C 300.79999999999995 434.1 263.9 444 224 444 C 184.10000000000002 444 147.2 434.2 113.5 414.4 C 79.8 394.7 53.1 368 33.5 334.4 C 13.899999999999999 300.79999999999995 4 263.9 4 224 C 4 184.10000000000002 13.8 147.2 33.6 113.5 C 53.400000000000006 79.80000000000001 80.1 53.1 113.6 33.5 C 147.1 13.899999999999999 184.1 4 224 4 C 263.9 4 300.8 13.8 334.5 33.6 C 368.2 53.400000000000006 394.9 80.1 414.5 113.6 C 434.1 147.1 444 184.1 444 224 Z"/></g><g><g transform="matrix(1,0,0,1,0,0)"><g transform="matrix(1,0,0,1,0,0)"><path fill="#4aa241" stroke="none" id="_54C74E13-2CC2-43EB-BC70-507C345F608C?shapeType=BORDER&amp;renderType=FILL" paint-order="stroke fill markers" d=" M 0 0 M 224 0 C 100.3 0 0 100.3 0 224 C 0 347.7 100.3 448 224 448 C 347.7 448 448 347.7 448 224 C 448 100.30000000000001 347.7 0 224 0 Z M 0 0 M 224 432 C 109.1 432 16 338.9 16 224 C 16 109.10000000000002 109.1 16 224 16 C 338.9 16 432 109.1 432 224 C 432 338.9 338.9 432 224 432 Z"/></g></g></g></g><g transform="matrix(1,0,0,1,28,61)"/></g><g id="_C8491281-1C6D-4C0B-ACA4-24A3CA2FD26A" bpmn2nodeid="_C8491281-1C6D-4C0B-ACA4-24A3CA2FD26A" transform="matrix(1,0,0,1,377.94287109375,73)"><g><path fill="none" stroke="none"/></g><g transform="matrix(0.125,0,0,0.125,0,0)"><g transform="matrix(1,0,0,1,0,0)"><path fill="#fce7e7" stroke="none" id="_C8491281-1C6D-4C0B-ACA4-24A3CA2FD26A?shapeType=BACKGROUND" paint-order="stroke fill markers" d=" M 0 0 M 444 224 C 444 263.9 434.2 300.8 414.4 334.5 C 394.7 368.2 368 394.9 334.4 414.5 C 300.79999999999995 434.1 263.9 444 224 444 C 184.10000000000002 444 147.2 434.2 113.5 414.4 C 79.8 394.7 53.1 368 33.5 334.4 C 13.899999999999999 300.79999999999995 4 263.9 4 224 C 4 184.10000000000002 13.8 147.2 33.6 113.5 C 53.400000000000006 79.80000000000001 80.1 53.1 113.6 33.5 C 147.1 13.899999999999999 184.1 4 224 4 C 263.9 4 300.8 13.8 334.5 33.6 C 368.2 53.400000000000006 394.9 80.1 414.5 113.6 C 434.1 147.1 444 184.1 444 224 Z"/></g><g><g transform="matrix(1,0,0,1,0,0)"><g transform="matrix(1,0,0,1,0,0)"><path fill="#a30000" stroke="none" id="_C8491281-1C6D-4C0B-ACA4-24A3CA2FD26A?shapeType=BORDER&amp;renderType=FILL" paint-order="stroke fill markers" d=" M 0 0 M 224 0 C 100.3 0 0 100.3 0 224 C 0 347.7 100.3 448 224 448 C 347.7 448 448 347.7 448 224 C 448 100.30000000000001 347.7 0 224 0 Z M 0 0 M 224 400 C 126.8 400 48 321.2 48 224 C 48 126.80000000000001 126.8 48 224 48 C 321.2 48 400 126.8 400 224 C 400 321.2 321.2 400 224 400 Z"/></g></g></g></g><g transform="matrix(1,0,0,1,28,61)"/></g><g id="_E43A918D-8C3C-4D4D-BA63-3BE60321C435" bpmn2nodeid="_E43A918D-8C3C-4D4D-BA63-3BE60321C435" transform="matrix(1,0,0,1,160,50)"><g><path fill="none" stroke="none"/></g><g transform="matrix(1,0,0,1,0,0)"><path fill="#ffffff" stroke="none" id="_E43A918D-8C3C-4D4D-BA63-3BE60321C435?shapeType=BACKGROUND" paint-order="stroke fill markers" d=" M 2 0 L 151 0 L 151 0 A 2 2 0 0 1 153 2 L 153 99 L 153 99 A 2 2 0 0 1 151 101 L 2 101 L 2 101 A 2 2 0 0 1 0 99 L 0 2 L 0 2.0000000000000004 A 2 2 0 0 1 1.9999999999999996 0 Z"/></g><g transform="matrix(1,0,0,1,0,0)"><path fill="none" stroke="rgb(57,63,68)" id="_E43A918D-8C3C-4D4D-BA63-3BE60321C435?shapeType=BORDER&amp;renderType=STROKE" paint-order="fill stroke markers" d=" M 2 0 L 151 0 L 151 0 A 2 2 0 0 1 153 2 L 153 99 L 153 99 A 2 2 0 0 1 151 101 L 2 101 L 2 101 A 2 2 0 0 1 0 99 L 0 2 L 0 2.0000000000000004 A 2 2 0 0 1 1.9999999999999996 0 Z" stroke-miterlimit="10" stroke-width="1.5" stroke-dasharray=""/></g><g transform="matrix(1,0,0,1,1,10)"><g transform="matrix(1,0,0,1,0,0)"><g transform="matrix(1,0,0,1,63,66)"><path fill="none" stroke="#393f44" id="_E43A918D-8C3C-4D4D-BA63-3BE60321C435undefined" paint-order="fill stroke markers" d=" M 0 0 L 25 0 L 25 25 L 0 25 L 0 0 Z Z" stroke-miterlimit="10" stroke-width="1.5" stroke-dasharray=""/></g><g transform="matrix(0.04,0,0,0.04,68.64,69.6)"><path fill="#000000" stroke="#000000" id="_E43A918D-8C3C-4D4D-BA63-3BE60321C435undefined" paint-order="fill stroke markers" d=" M 0 0 M 352 184 L 352 232 C 352 238.7 349.7 244.3 345 249 C 340.3 253.7 334.7 256 328 256 L 224 256 L 224 360 C 224 366.7 221.7 372.3 217 377 C 212.3 381.7 206.7 384 200 384 L 152 384 C 145.3 384 139.7 381.7 135 377 C 130.3 372.3 128 366.7 128 360 L 128 256 L 24 256 C 17.3 256 11.7 253.7 7 249 C 2.3000000000000007 244.3 0 238.7 0 232 L 0 184 C 0 177.3 2.3 171.7 7 167 C 11.7 162.3 17.3 160 24 160 L 128 160 L 128 56 C 128 49.3 130.3 43.7 135 39 C 139.7 34.3 145.3 32 152 32 L 200 32 C 206.7 32 212.3 34.3 217 39 C 221.7 43.7 224 49.3 224 56 L 224 160 L 328 160 C 334.7 160 340.3 162.3 345 167 C 349.7 171.7 352 177.3 352 184 Z" stroke-miterlimit="10" stroke-dasharray=""/></g></g></g><g transform="matrix(1,0,0,1,12.82,10)"><g transform="matrix(1,0,0,1,0,0)"><g transform="matrix(1,0,0,1,63,66)"><path fill="none" stroke="none"/></g><g transform="matrix(0.04,0,0,0.04,68.64,69.6)"><path fill="none" stroke="none"/></g><g transform="matrix(0.04,0,0,0.04,40.32,71.04)"><path fill="none" stroke="none"/></g><g transform="matrix(0.04,0,0,0.04,39.36,72)"><path fill="none" stroke="none"/></g></g></g><g transform="matrix(1,0,0,1,32.859375,43)"><text fill="#000000" stroke="none" font-family="Open Sans" font-size="12pt" font-style="normal" font-weight="normal" text-decoration="normal" x="43.640625" y="12" text-anchor="middle" dominant-baseline="alphabetic">Facility Task</text></g></g></g><g id="_A3B451DC-1C81-46B4-9B69-0F27C9FC2D6C" bpmn2nodeid="_A3B451DC-1C81-46B4-9B69-0F27C9FC2D6C" transform="matrix(1,0,0,1,40,167.80621337890625)"><g><path fill="none" stroke="none"/></g><g transform="matrix(0.125,0,0,0.125,0,0)"><g transform="matrix(1,0,0,1,0,0)"><path fill="#e8fae6" stroke="none" id="_A3B451DC-1C81-46B4-9B69-0F27C9FC2D6C?shapeType=BACKGROUND" paint-order="stroke fill markers" d=" M 0 0 M 444 224 C 444 263.9 434.2 300.8 414.4 334.5 C 394.7 368.2 368 394.9 334.4 414.5 C 300.79999999999995 434.1 263.9 444 224 444 C 184.10000000000002 444 147.2 434.2 113.5 414.4 C 79.8 394.7 53.1 368 33.5 334.4 C 13.899999999999999 300.79999999999995 4 263.9 4 224 C 4 184.10000000000002 13.8 147.2 33.6 113.5 C 53.400000000000006 79.80000000000001 80.1 53.1 113.6 33.5 C 147.1 13.899999999999999 184.1 4 224 4 C 263.9 4 300.8 13.8 334.5 33.6 C 368.2 53.400000000000006 394.9 80.1 414.5 113.6 C 434.1 147.1 444 184.1 444 224 Z"/></g><g><g transform="matrix(1,0,0,1,0,0)"><g transform="matrix(1,0,0,1,0,0)"><path fill="#4aa241" stroke="none" id="_A3B451DC-1C81-46B4-9B69-0F27C9FC2D6C?shapeType=BORDER&amp;renderType=FILL" paint-order="stroke fill markers" d=" M 0 0 M 224 0 C 100.3 0 0 100.3 0 224 C 0 347.7 100.3 448 224 448 C 347.7 448 448 347.7 448 224 C 448 100.30000000000001 347.7 0 224 0 Z M 0 0 M 224 432 C 109.1 432 16 338.9 16 224 C 16 109.10000000000002 109.1 16 224 16 C 338.9 16 432 109.1 432 224 C 432 338.9 338.9 432 224 432 Z"/></g></g></g></g><g transform="matrix(1,0,0,1,28,61)"/></g></g><g id="_61824403-34C7-402D-AB55-395C4917820E" bpmn2nodeid="_61824403-34C7-402D-AB55-395C4917820E" transform="matrix(1,0,0,1,437,521.7711181640625)"><g><path fill="none" stroke="none"/></g><g transform="matrix(0.125,0,0,0.125,0,0)"><g transform="matrix(1,0,0,1,0,0)"><path fill="#e8fae6" stroke="none" id="_61824403-34C7-402D-AB55-395C4917820E?shapeType=BACKGROUND" paint-order="stroke fill markers" d=" M 0 0 M 444 224 C 444 263.9 434.2 300.8 414.4 334.5 C 394.7 368.2 368 394.9 334.4 414.5 C 300.79999999999995 434.1 263.9 444 224 444 C 184.10000000000002 444 147.2 434.2 113.5 414.4 C 79.8 394.7 53.1 368 33.5 334.4 C 13.899999999999999 300.79999999999995 4 263.9 4 224 C 4 184.10000000000002 13.8 147.2 33.6 113.5 C 53.400000000000006 79.80000000000001 80.1 53.1 113.6 33.5 C 147.1 13.899999999999999 184.1 4 224 4 C 263.9 4 300.8 13.8 334.5 33.6 C 368.2 53.400000000000006 394.9 80.1 414.5 113.6 C 434.1 147.1 444 184.1 444 224 Z"/></g><g><g transform="matrix(1,0,0,1,0,0)"><g transform="matrix(1,0,0,1,0,0)"><path fill="#4aa241" stroke="none" id="_61824403-34C7-402D-AB55-395C4917820E?shapeType=BORDER&amp;renderType=FILL" paint-order="stroke fill markers" d=" M 0 0 M 224 0 C 100.3 0 0 100.3 0 224 C 0 347.7 100.3 448 224 448 C 347.7 448 448 347.7 448 224 C 448 100.30000000000001 347.7 0 224 0 Z M 0 0 M 224 432 C 109.1 432 16 338.9 16 224 C 16 109.10000000000002 109.1 16 224 16 C 338.9 16 432 109.1 432 224 C 432 338.9 338.9 432 224 432 Z"/></g></g></g></g><g transform="matrix(1,0,0,1,28,61)"/></g><g id="_D325F13A-4230-460F-BDFB-6725F82E75DB" bpmn2nodeid="_D325F13A-4230-460F-BDFB-6725F82E75DB"><g><path fill="none" stroke="#000000" paint-order="fill stroke markers" d=" M 945.7431030273438 550.0601369235336 L 1069.6151914421387 548.8723966692364" stroke-miterlimit="10" stroke-dasharray=""/></g><g transform="matrix(1,0,0,1,945.7431030273438,550.0601369235336)"/><g transform="matrix(0.009588000605344931,0.9999540340657624,-0.9999540340657624,0.009588000605344931,1084.5665619500983,543.7288064898274)"><path fill="#000000" stroke="#000000" paint-order="fill stroke markers" d=" M 10 15 L 0 15 L 5 0 Z" stroke-miterlimit="10" stroke-dasharray=""/></g><g transform="matrix(1,0,0,1,945.8389830333972,539.3948164511874)"/></g><g id="_6D8CE864-9DBD-4A9F-85FF-0E58BE4621EF" bpmn2nodeid="_6D8CE864-9DBD-4A9F-85FF-0E58BE4621EF"><g><path fill="none" stroke="#000000" paint-order="fill stroke markers" d=" M 1542.7431640625 542.9566682830896 L 1633.747923749955 540.6635520551092" stroke-miterlimit="10" stroke-dasharray=""/></g><g transform="matrix(1,0,0,1,1542.7431640625,542.9566682830896)"/><g transform="matrix(0.025189765913531354,0.9996826875030004,-0.9996826875030004,0.025189765913531354,1648.6172152329323,535.2872921288913)"><path fill="#000000" stroke="#000000" paint-order="fill stroke markers" d=" M 10 15 L 0 15 L 5 0 Z" stroke-miterlimit="10" stroke-dasharray=""/></g><g transform="matrix(1,0,0,1,1542.9950617216352,531.6243600497179)"/></g><g id="_EC105F17-56C0-4BF3-B561-AE92B2010414" bpmn2nodeid="_EC105F17-56C0-4BF3-B561-AE92B2010414"><g><path fill="none" stroke="#000000" paint-order="fill stroke markers" d=" M 493 549.7711146763393 L 572.5000000000001 549.7711047736966" stroke-miterlimit="10" stroke-dasharray=""/></g><g transform="matrix(1,0,0,1,493,549.7711146763393)"/><g transform="matrix(1.2456154469559266e-7,0.9999999999999922,-0.9999999999999922,1.2456154469559266e-7,587.4999993771922,544.7711029052734)"><path fill="#000000" stroke="#000000" paint-order="fill stroke markers" d=" M 10 15 L 0 15 L 5 0 Z" stroke-miterlimit="10" stroke-dasharray=""/></g><g transform="matrix(1,0,0,1,493.0000012456154,539.7711087908065)"/></g><g id="_28A96AE1-E5BA-4D6A-B14B-43B874A3ED40" bpmn2nodeid="_28A96AE1-E5BA-4D6A-B14B-43B874A3ED40"><g><path fill="none" stroke="#000000" paint-order="fill stroke markers" d=" M 740.5 549.7637940641301 L 834.7431030958036 549.7547900396937" stroke-miterlimit="10" stroke-dasharray=""/></g><g transform="matrix(1,0,0,1,740.5,549.7637940641301)"/><g transform="matrix(0.00009554040666441502,0.9999999954360154,-0.9999999954360154,0.00009554040666441502,849.7426253253104,544.7533569564137)"><path fill="#000000" stroke="#000000" paint-order="fill stroke markers" d=" M 10 15 L 0 15 L 5 0 Z" stroke-miterlimit="10" stroke-dasharray=""/></g><g transform="matrix(1,0,0,1,740.5009554040666,539.7585755445018)"/></g><g id="_3FD71110-A779-4F5D-9FF1-AE8B57B10B8D" bpmn2nodeid="_3FD71110-A779-4F5D-9FF1-AE8B57B10B8D"><g><path fill="none" stroke="#000000" paint-order="fill stroke markers" d=" M 1794.2568359375 549.7533569335938 L 1955.2572028020784 548.6273084470836" stroke-miterlimit="10" stroke-dasharray=""/></g><g transform="matrix(1,0,0,1,1794.2568359375,549.7533569335938)"/><g transform="matrix(0.006993902982655403,0.9999755423614466,-0.9999755423614466,0.006993902982655403,1970.2218664225868,543.5225221905365)"><path fill="#000000" stroke="#000000" paint-order="fill stroke markers" d=" M 10 15 L 0 15 L 5 0 Z" stroke-miterlimit="10" stroke-dasharray=""/></g><g transform="matrix(1,0,0,1,1794.3267749673266,539.1381229943543)"/></g><g id="_DE94B5AE-59D9-43AA-A603-8D586A42551B" bpmn2nodeid="_DE94B5AE-59D9-43AA-A603-8D586A42551B"><g><path fill="none" stroke="#000000" paint-order="fill stroke markers" d=" M 1174.614501953125 539.4285627092634 L 1229.6146971804671 539.7091759502192" stroke-miterlimit="10" stroke-dasharray=""/></g><g transform="matrix(1,0,0,1,1174.614501953125,539.4285627092634)"/><g transform="matrix(-0.005101974412468721,0.9999869848438501,-0.9999869848438501,-0.005101974412468721,1244.6400118251872,534.785770642187)"><path fill="#000000" stroke="#000000" paint-order="fill stroke markers" d=" M 10 15 L 0 15 L 5 0 Z" stroke-miterlimit="10" stroke-dasharray=""/></g><g transform="matrix(1,0,0,1,1174.6655216972497,529.6072642893963)"/></g><g id="_31C3DF03-EE31-4A40-B7A9-CB334920D5D3" bpmn2nodeid="_31C3DF03-EE31-4A40-B7A9-CB334920D5D3"><g><path fill="none" stroke="#000000" paint-order="fill stroke markers" d=" M 1397.614501953125 540.056132769306 L 1447.5574667674782 540.2326809559631" stroke-miterlimit="10" stroke-dasharray=""/></g><g transform="matrix(1,0,0,1,1397.614501953125,540.056132769306)"/><g transform="matrix(-0.003534974029541121,0.9999937519597862,-0.9999937519597862,-0.003534974029541121,1462.5750479170226,535.2857368066074)"><path fill="#000000" stroke="#000000" paint-order="fill stroke markers" d=" M 10 15 L 0 15 L 5 0 Z" stroke-miterlimit="10" stroke-dasharray=""/></g><g transform="matrix(1,0,0,1,1397.6498516934205,530.1709816482582)"/></g><g transform="matrix(1,0,0,1,1970.2568359375,520.5223999023438)"/><g transform="matrix(1,0,0,1,587.5,499.2710876464844)"/><g transform="matrix(1,0,0,1,849.7431030273438,354.52239990234375)"/><g transform="matrix(1,0,0,1,1648.7431640625,512.2857055664062)"/><g transform="matrix(1,0,0,1,1084.614501953125,439.28570556640625)"/><g transform="matrix(1,0,0,1,1118.614501953125,511.28570556640625)"/><g transform="matrix(1,0,0,1,1462.557373046875,512.2857055664062)"/><g transform="matrix(1,0,0,1,889.7431030273438,522.32861328125)"/><g transform="matrix(1,0,0,1,437,521.7711181640625)"/><g transform="matrix(1,0,0,1,1244.614501953125,489.28570556640625)"/></g></g></svg>